HIERARCHY
ROOT root
{
	OFFSET	0	13.1	24.9
	CHANNELS 6  Xposition Yposition Zposition Xrotation Yrotation Zrotation
	JOINT spine_1
	{
		OFFSET	0	9.99999	0
		CHANNELS 3  Xrotation Yrotation Zrotation
		JOINT spine_2
		{
			OFFSET	0	112	-10
			CHANNELS 3  Xrotation Yrotation Zrotation
			JOINT spine_3
			{
				OFFSET	0	206.5	19.3
				CHANNELS 3  Xrotation Yrotation Zrotation
				JOINT spine_4
				{
					OFFSET	0	110.4	14.6
					CHANNELS 3  Xrotation Yrotation Zrotation
					JOINT neck_1
					{
						OFFSET	0	71.8	-50.3
						CHANNELS 3  Xrotation Yrotation Zrotation
						JOINT neck_2
						{
							OFFSET	0	86.2	-25.8
							CHANNELS 3  Xrotation Yrotation Zrotation
							JOINT head_ee
							{
								OFFSET	0	179.8	-8.7
								CHANNELS 3  Xrotation Yrotation Zrotation
								End Site
								{
									OFFSET	1	0	0
								}
							}
						}
					}
					JOINT left_clavicle
					{
						OFFSET	-43.2	22.4	-70.8
						CHANNELS 3  Xrotation Yrotation Zrotation
						JOINT left_shoulder
						{
							OFFSET	-93.9	-5.79999	48.7
							CHANNELS 3  Xrotation Yrotation Zrotation
							JOINT left_elbow
							{
								OFFSET	-291.4	-30.8	15.2
								CHANNELS 3  Xrotation Yrotation Zrotation
								JOINT left_lowarm_twist
								{
									OFFSET	-110.7	-3.89999	13.6
									CHANNELS 3  Xrotation Yrotation Zrotation
									JOINT left_hand
									{
										OFFSET	-110.7	-3.89999	13.6
										CHANNELS 3  Xrotation Yrotation Zrotation
										JOINT left_ee
										{
											OFFSET	-80.8	-5.10001	12.1
											CHANNELS 3  Xrotation Yrotation Zrotation
											End Site
											{
												OFFSET	1	0	0
											}
										}
									}
								}
							}
						}
					}
					JOINT right_clavicle
					{
						OFFSET	43.2	22.4	-70.8
						CHANNELS 3  Xrotation Yrotation Zrotation
						JOINT right_shoulder
						{
							OFFSET	93.9	-5.79999	48.7
							CHANNELS 3  Xrotation Yrotation Zrotation
							JOINT right_elbow
							{
								OFFSET	291.4	-30.8	15.2
								CHANNELS 3  Xrotation Yrotation Zrotation
								JOINT right_lowarm_twist
								{
									OFFSET	110.7	-3.89999	13.6
									CHANNELS 3  Xrotation Yrotation Zrotation
									JOINT right_hand
									{
										OFFSET	110.7	-3.89999	13.6
										CHANNELS 3  Xrotation Yrotation Zrotation
										JOINT right_ee
										{
											OFFSET	80.8	-5.10001	12.1
											CHANNELS 3  Xrotation Yrotation Zrotation
											End Site
											{
												OFFSET	1	0	0
											}
										}
									}
								}
							}
						}
					}
				}
			}
		}
	}
	JOINT left_hip
	{
		OFFSET	-82.8	-127.5	0.300001
		CHANNELS 3  Xrotation Yrotation Zrotation
		JOINT left_knee
		{
			OFFSET	-28.2	-396.7	2.2
			CHANNELS 3  Xrotation Yrotation Zrotation
			JOINT left_ankle
			{
				OFFSET	-11.7	-411.3	35.4
				CHANNELS 3  Xrotation Yrotation Zrotation
				JOINT left_toes
				{
					OFFSET	0	-60	-88.6
					CHANNELS 3  Xrotation Yrotation Zrotation
					JOINT left_foot_ee
					{
						OFFSET	-22.5	-16.5	-42.2
						CHANNELS 3  Xrotation Yrotation Zrotation
						End Site
						{
							OFFSET	1	0	0
						}
					}
				}
			}
		}
	}
	JOINT right_hip
	{
		OFFSET	82.8	-127.5	0.300001
		CHANNELS 3  Xrotation Yrotation Zrotation
		JOINT right_knee
		{
			OFFSET	28.2	-396.7	2.2
			CHANNELS 3  Xrotation Yrotation Zrotation
			JOINT right_ankle
			{
				OFFSET	11.7	-411.3	35.4
				CHANNELS 3  Xrotation Yrotation Zrotation
				JOINT right_toes
				{
					OFFSET	0	-60	-88.6
					CHANNELS 3  Xrotation Yrotation Zrotation
					JOINT right_foot_ee
					{
						OFFSET	22.5	-16.5	-42.2
						CHANNELS 3  Xrotation Yrotation Zrotation
						End Site
						{
							OFFSET	1	0	0
						}
					}
				}
			}
		}
	}
}
MOTION
Frames: 9
Frame Time: 0.02
1593.5 690.383 -896.924 -170.137 -62.5085 -171.141 1.0653 -0.0838438 -0.0538924 1.06529 -0.0802445 -0.0591184 1.06538 -0.0674037 -0.0734228 1.06538 -0.0781536 -0.0618561 -2.16502 2.73781 6.88128 -2.03215 -0.503776 7.59209 -0.0 0.0 -0.0 8.9205 22.1482 15.4331 -39.4369 -43.9471 51.19 0.712726 -19.4463 0.122126 8.0861 0.213932 -1.0099 0.690308 1.98938 5.42803 -0.0 0.0 -0.0 8.60216 12.8799 -16.7085 -6.86411 63.9884 -48.739 0.390436 10.9466 -0.0374113 35.1752 0.122379 4.42197 -1.82337 28.2551 24.0773 0.0 0.0 0.0 31.0748 -26.5564 -0.0762627 -8.89516 0.262776 1.33848 -3.64403 30.1362 0.578117 -26.7589 0.0 0.0 -0.0 0.0 -0.0 3.1296 1.87478 0.962719 -24.5783 -0.21327 -3.73689 24.9928 -7.48412 3.33022 1.34521 -0.0 -0.0 0.0 0.0 0.0 
1620.21 689.569 -885.884 -170.852 -60.2755 -171.259 1.31999 -0.0474764 -0.125229 1.32 -0.0394115 -0.127996 1.32009 -0.0147002 -0.133117 1.32007 -0.035539 -0.129125 -1.84628 2.88763 7.09047 -1.70569 -0.440027 7.84594 -0.0 0.0 -0.0 9.26913 21.8483 16.0097 -45.1258 -43.457 47.9667 0.818906 -22.0804 0.159778 6.40793 0.181297 -0.798025 0.276387 2.41887 2.84961 -0.0 0.0 -0.0 9.77562 10.2378 -19.3397 -13.6874 64.0354 -45.764 0.447805 12.5076 -0.0490728 33.7093 0.0631113 4.2442 -2.05844 28.1812 25.678 0.0 0.0 0.0 31.0141 -26.8505 -1.03694 -14.0182 0.318929 2.12228 -5.26959 29.3945 0.834149 -25.2438 0.0 0.0 -0.0 0.0 -0.0 2.73198 1.21101 1.35637 -26.1936 -0.17094 -3.98115 23.2272 -2.97122 3.12967 1.37616 -0.0 -0.0 0.0 0.0 0.0 
1638.31 692.464 -880.989 -171.755 -58.4587 -171.914 1.43221 -0.040863 -0.382209 1.43229 -0.0164594 -0.384034 1.43241 0.0551316 -0.380413 1.43221 -0.00563893 -0.384345 -1.4448 3.81252 8.56079 -1.24307 -0.0132998 9.53603 -0.0 0.0 -0.0 10.042 19.5614 17.5999 -43.9407 -41.3693 47.6015 0.818882 -22.0798 0.159769 8.84907 0.226713 -1.10653 0.275759 3.42339 3.25923 -0.0 0.0 -0.0 10.1309 8.02176 -20.1314 -12.4037 64.9598 -48.3838 0.364089 10.2241 -0.0325714 33.2976 0.0472867 4.19402 -1.92506 27.0313 24.3458 0.0 0.0 0.0 30.9448 -26.8956 -1.53744 -16.1089 0.321677 2.44302 -10.8724 29.3772 1.73452 -25.6154 0.0 0.0 -0.0 0.0 -0.0 2.22603 2.14233 1.64305 -27.4962 -0.131795 -4.17722 20.6949 -6.21743 2.81678 2.61283 -0.0 -0.0 0.0 0.0 0.0 
1661.68 690.302 -887.178 -171.266 -56.6794 -171.844 1.46427 0.0174592 -0.413675 1.46437 0.0437468 -0.411726 1.46405 0.119215 -0.39651 1.46384 0.0550982 -0.410361 -2.57718 5.12152 5.31219 -2.5003 5.10711 6.25849 -0.0 0.0 -0.0 8.7048 17.4003 15.7252 -39.6977 -43.1861 52.5533 0.849533 -22.8228 0.171475 8.50989 0.22119 -1.06355 -0.0665153 5.67717 1.93611 -0.0 0.0 -0.0 9.92668 8.91323 -19.6844 -15.8298 62.7445 -46.8159 0.478132 13.3253 -0.0558518 34.1306 0.0796781 4.29544 -1.88544 24.6168 23.1884 0.0 0.0 0.0 30.9562 -28.0663 -0.209173 -17.0989 0.318895 2.59489 -11.8952 29.3444 1.89947 -27.4713 0.0 0.0 -0.0 0.0 -0.0 3.15839 6.15538 2.48849 -27.8651 -0.119899 -4.23259 16.2787 -7.52312 2.25916 4.2766 -0.0 -0.0 0.0 0.0 0.0 
1681.94 693.836 -883.03 -171.684 -55.4878 -171.454 1.54317 -0.0982525 -0.864299 1.54359 -0.0430579 -0.868799 1.54428 0.117326 -0.861917 1.54324 -0.0202645 -0.869629 -1.23459 5.11819 5.41364 -1.15531 4.84534 6.35851 -0.0 0.0 -0.0 8.34494 14.9545 15.3865 -38.8184 -47.0571 52.8837 0.729473 -19.8678 0.12776 7.91603 0.210907 -0.988391 0.348305 5.94807 4.76651 -0.0 0.0 -0.0 9.22388 9.09009 -18.1602 -10.7358 61.7852 -52.8883 0.431547 12.067 -0.0456129 35.0461 0.116975 4.40636 -2.23468 25.2485 25.8805 0.0 0.0 0.0 30.2291 -26.9429 -0.980664 -18.6952 0.308884 2.83959 -14.8291 27.9215 2.35339 -28.3862 0.0 0.0 -0.0 0.0 -0.0 3.33339 5.83271 2.46203 -28.2826 -0.106004 -4.29517 13.1888 -7.67199 1.85306 4.70484 -0.0 -0.0 0.0 0.0 0.0 
1700.01 696.892 -881.297 -171.795 -54.8679 -171.619 1.49534 -0.17991 -0.744092 1.49564 -0.132198 -0.754031 1.49743 0.00923033 -0.765476 1.49663 -0.111775 -0.757328 -1.46621 4.57779 6.63381 -1.3512 2.9208 7.58379 -0.0 0.0 -0.0 7.7956 13.6644 14.5595 -34.9191 -46.1138 56.09 0.707811 -19.3222 0.120495 8.1528 0.215101 -1.01834 -0.799437 8.75399 -1.5215 -0.0 0.0 -0.0 10.2028 7.70211 -20.2869 -19.1774 60.5649 -46.5806 0.552978 15.3193 -0.0743698 33.9851 0.0739129 4.27776 -1.76749 24.9185 22.4787 0.0 0.0 0.0 29.9972 -27.1634 -0.351434 -20.2105 0.293077 3.07156 -14.2312 26.5178 2.23889 -27.58 0.0 0.0 -0.0 0.0 -0.0 4.26079 6.98508 2.52155 -28.8339 -0.0869625 -4.37762 10.5176 -10.2183 1.49355 4.08895 -0.0 -0.0 0.0 0.0 0.0 
1729.83 705.403 -888.864 -170.894 -53.9875 -170.404 1.72716 -0.428665 -1.18317 1.72787 -0.352513 -1.20805 1.73543 -0.128755 -1.25182 1.73339 -0.324826 -1.21579 -1.12654 5.71742 7.87474 -0.965287 3.91449 9.04171 -0.0 0.0 -0.0 8.69819 11.5276 16.3218 -30.5924 -46.2964 56.5742 0.603048 -16.6327 0.0881518 8.86647 0.226989 -1.10873 -0.451455 10.7214 1.55145 -0.0 0.0 -0.0 9.97703 6.38585 -19.7908 -23.9561 58.341 -44.9046 0.613825 16.9131 -0.0912618 34.1265 0.0795156 4.29495 -1.95677 26.5857 24.4068 0.0 0.0 0.0 29.4332 -28.3496 0.889917 -19.8335 0.297582 3.01389 -14.0513 29.0907 2.24486 -27.2091 0.0 0.0 -0.0 0.0 -0.0 5.78189 9.67471 2.40688 -28.7569 -0.0896671 -4.36613 7.05299 -14.8603 1.01945 3.52604 -0.0 -0.0 0.0 0.0 0.0 
1759.05 710.441 -882.59 -172.532 -55.6576 -171.214 1.64608 -0.517835 -1.37 1.64703 -0.429618 -1.40017 1.65773 -0.167983 -1.45492 1.655 -0.395629 -1.41015 1.28314 6.15311 6.08984 1.38415 5.77776 7.19962 -0.0 0.0 -0.0 9.67161 9.65441 18.281 -31.2919 -47.8167 55.2481 0.467925 -13.0507 0.0535232 7.93105 0.211177 -0.990289 -0.726044 10.5761 -0.261792 -0.0 0.0 -0.0 8.64058 6.98294 -16.9381 -28.509 55.3609 -50.2192 0.550478 15.2533 -0.0737107 34.6986 0.10261 4.36433 -1.91302 26.6576 24.1282 0.0 0.0 0.0 27.5573 -30.1414 2.35149 -21.3008 0.277911 3.23817 -10.4584 28.1494 1.65464 -26.9674 0.0 0.0 -0.0 0.0 -0.0 7.10048 11.6393 2.0501 -32.8916 0.0775063 -4.97847 10.5078 -13.4427 1.49806 3.35002 -0.0 -0.0 0.0 0.0 0.0 
1787.97 709.24 -874.257 -172.592 -55.8154 -170.91 1.58641 -0.531584 -1.51272 1.58758 -0.434261 -1.54347 1.59954 -0.144885 -1.59682 1.5962 -0.395225 -1.55392 1.60023 5.69426 8.19891 1.76942 3.13832 9.47826 -0.0 0.0 -0.0 10.2258 6.80248 19.6186 -29.9243 -48.0774 53.9342 0.291109 -8.20605 0.0208824 8.4748 0.220604 -1.05911 -0.642932 10.2651 0.135462 -0.0 0.0 -0.0 7.52715 5.49364 -14.6218 -30.6996 53.5047 -54.9291 0.533316 14.799 -0.0692614 35.2752 0.126588 4.43404 -2.24701 24.5748 25.7236 0.0 0.0 0.0 25.7677 -29.5156 2.57915 -22.0823 0.265091 3.35739 -6.50045 28.6414 1.02599 -27.0044 0.0 0.0 -0.0 0.0 -0.0 13.6503 19.1005 -2.42179 -44.8947 0.807159 -6.66947 9.44873 -20.2987 1.37756 4.94304 -0.0 -0.0 0.0 0.0 0.0 
